<?xml version="1.0" standalone="no"?>
<!DOCTYPE svg PUBLIC "-//W3C//DTD SVG 20010904//EN"
 "http://www.w3.org/TR/2001/REC-SVG-20010904/DTD/svg10.dtd">
<svg version="1.0" xmlns="http://www.w3.org/2000/svg"
 width="1248.000000pt" height="1248.000000pt" viewBox="0 0 1248.000000 1248.000000"
 preserveAspectRatio="xMidYMid meet">
<metadata>
Created by potrace 1.11, written by Peter Selinger 2001-2013
</metadata>
<g transform="translate(0.000000,1248.000000) scale(0.100000,-0.100000)"
fill="#000000" stroke="none">
<path d="M11370 11068 l-45 -23 -661 -1322 -661 -1323 -249 183 c-137 101
-325 239 -419 308 -293 216 -1005 739 -1121 824 -62 45 -125 85 -142 88 -59
12 -131 -22 -157 -74 -15 -27 -18 -194 -30 -1501 -7 -808 -15 -1471 -17 -1473
-2 -2 -305 59 -673 136 -369 76 -951 197 -1295 269 -912 189 -928 193 -966
185 -65 -12 -97 -53 -144 -185 -23 -66 -46 -120 -51 -120 -5 0 -323 242 -706
537 -459 353 -712 541 -738 550 -22 7 -350 55 -730 108 -379 52 -1072 149
-1539 215 -693 98 -855 118 -885 110 -38 -10 -69 -37 -90 -77 -17 -33 -13
-104 7 -135 15 -23 905 -938 2305 -2370 289 -295 417 -420 440 -427 17 -6 324
-58 681 -116 357 -58 650 -106 652 -108 1 -1 -29 -87 -67 -192 -38 -104 -114
-316 -168 -470 -104 -294 -276 -775 -438 -1230 -103 -286 -111 -326 -75 -375
27 -36 81 -70 112 -70 15 0 285 47 601 105 316 58 822 150 1124 205 303 55
820 149 1150 209 465 86 602 108 611 98 11 -12 1160 -1401 1483 -1792 191
-232 227 -272 261 -290 34 -17 848 -100 897 -90 49 9 99 62 108 113 7 41 20 2
-345 1027 -263 737 -361 1017 -358 1020 2 2 44 -27 93 -63 50 -37 166 -122
257 -189 92 -68 183 -130 203 -140 34 -16 63 -16 548 6 564 24 560 24 604 90
30 44 30 104 0 154 -12 20 -99 151 -194 290 -94 138 -251 368 -347 511 l-175
259 23 28 c13 16 27 45 30 66 3 21 22 288 41 593 20 305 37 560 39 565 2 7
333 -5 987 -37 1214 -58 1185 -57 1227 -34 44 23 72 71 72 122 0 42 -6 58
-455 1164 -83 206 -216 535 -295 730 l-144 355 15 1440 c9 792 12 1455 8 1474
-10 43 -53 88 -93 96 -17 4 -38 8 -46 11 -9 2 -36 -6 -60 -18z m-101 -1819
c-6 -574 -13 -1045 -14 -1047 -3 -3 -968 98 -973 102 -2 2 221 452 495 999
273 548 499 994 501 993 1 -2 -2 -473 -9 -1047z m-2862 -35 c391 -288 1185
-872 1301 -956 67 -50 122 -94 122 -98 0 -5 -55 -66 -122 -137 -68 -71 -283
-297 -478 -503 -195 -206 -402 -424 -460 -485 -58 -60 -217 -228 -354 -373
-137 -144 -251 -261 -253 -258 -5 5 18 2937 23 2955 5 16 -15 29 221 -145z
m-6872 -1129 c484 -68 1051 -147 1260 -175 209 -29 391 -58 405 -65 19 -9
1239 -943 1413 -1081 l27 -22 -109 -308 c-155 -439 -292 -818 -297 -823 -2 -2
-36 1 -76 8 -141 24 -1229 201 -1232 201 -2 0 -428 435 -947 968 -519 532
-1044 1069 -1166 1193 -123 124 -223 229 -223 233 0 4 15 4 33 1 17 -3 428
-61 912 -130z m9328 -135 c216 -22 402 -43 415 -48 25 -7 18 10 428 -1007 80
-197 150 -368 156 -378 5 -10 8 -21 5 -23 -2 -3 -294 300 -648 673 -354 373
-675 711 -713 751 -46 47 -64 72 -52 72 9 0 193 -18 409 -40z m-132 -690 c553
-583 794 -836 1077 -1134 73 -76 131 -141 129 -142 -2 -2 -134 3 -293 11 -159
8 -966 46 -1794 85 -827 39 -1506 73 -1508 75 -2 2 239 259 535 572 297 312
683 720 859 905 l319 338 51 -53 c28 -28 310 -324 625 -657z m-4791 -405 c300
-62 712 -148 915 -190 204 -41 514 -106 690 -143 l320 -67 5 -245 5 -245 122
-340 c117 -328 256 -717 593 -1665 319 -899 485 -1364 617 -1735 161 -452 168
-473 162 -479 -3 -4 -462 39 -495 47 -6 1 -360 423 -786 937 -425 514 -1135
1372 -1577 1905 -1103 1333 -1346 1626 -1492 1801 l-126 152 78 216 c43 119
80 220 83 225 6 9 41 2 886 -174z m-963 -822 c1451 -1752 1774 -2143 1774
-2150 0 -11 78 4 -1306 -248 -676 -123 -1327 -242 -1445 -264 -262 -48 -265
-48 -263 -36 2 10 147 419 470 1325 85 239 212 597 283 795 121 341 256 717
279 778 6 15 13 27 15 27 3 0 90 -102 193 -227z m4118 -209 c418 -19 761 -37
764 -39 4 -4 -56 -959 -65 -1035 l-5 -45 -252 -162 c-139 -88 -348 -222 -465
-297 -116 -75 -215 -136 -220 -136 -7 0 -83 210 -422 1165 -100 281 -187 526
-195 546 -8 20 -12 39 -9 42 3 3 29 3 57 1 29 -3 394 -20 812 -40z m876 -1756
c106 -156 234 -344 286 -420 l93 -136 -73 -6 c-164 -13 -587 -27 -599 -20 -27
17 -544 398 -561 414 -18 17 -4 27 315 233 183 118 336 216 340 216 4 1 93
-126 199 -281z"/>
</g>
</svg>
