<?xml version="1.0" encoding="UTF-8"?>
<svg width="64px" height="56px" viewBox="0 0 64 56" version="1.1" xmlns="http://www.w3.org/2000/svg" xmlns:xlink="http://www.w3.org/1999/xlink">
    <!-- Generator: Sketch 47.1 (45422) - http://www.bohemiancoding.com/sketch -->
    <title>np_spend_304518_000000</title>
    <desc>Created with Sketch.</desc>
    <defs></defs>
    <g id="Page-2" stroke="none" stroke-width="1" fill="none" fill-rule="evenodd">
        <g id="np_spend_304518_000000" fill-rule="nonzero" fill="#000000">
            <path d="M21.699,0.77 C15.8006,0.77 10.5,1.8716 6.597,3.77 C2.7962,5.5708 0.1986,8.1684 0.097,11.27 L0.097,11.37156 L0.097,11.57078 L0.097,20.17238 L0.097,20.27394 L0.097,29.47314 L0.097,29.5747 L0.097,38.0747 C0.097,41.2739 2.6986,43.9731 6.597,45.8755 C10.4954,47.7739 15.7962,48.8755 21.699,48.8755 C23.8982,48.8755 25.9998,48.67628 27.9998,48.3755 C31.699,52.9771 37.3982,55.9771 43.6988,55.9771 C54.8008,55.9771 63.8008,46.9771 63.8008,35.7781 C63.8008,24.6761 54.8008,15.5791 43.6988,15.5791 L43.1988,15.5791 L43.1988,11.5791 L43.1988,11.37988 L43.1988,11.27832 L43.1988,11.17676 C42.99958,8.17676 40.4996,5.57516 36.6988,3.67676 C32.8004,1.86816 27.6011,0.77056 21.6988,0.77056 L21.699,0.77 Z M21.699,2.3677 C27.3006,2.3677 32.398,3.4693 36,5.1685 C39.5,6.8677 41.6016,9.0669 41.6992,11.3677 L41.6992,11.46926 L41.6992,11.57082 C41.6992,13.17242 40.6992,14.87162 38.8008,16.27002 C36.4024,16.87158 34.1016,17.96922 32.1992,19.37162 C29.0976,20.27006 25.5976,20.77002 21.8012,20.77002 C16.102,20.77002 11.0002,19.66842 7.4032,17.96922 C4.0048,16.36762 2.0048,14.27002 1.8016,12.07082 L1.8016,11.67238 L1.8016,11.47316 C1.90316,9.27396 3.9032,7.07476 7.5008,5.37156 C11.0008,3.46926 16.1024,2.36766 21.6998,2.36766 L21.699,2.3677 Z M1.699,15.6687 C2.8006,17.0671 4.5974,18.3679 6.5974,19.3679 C10.4958,21.2663 15.7966,22.3679 21.6994,22.3679 C24.3986,22.3679 27.0002,22.16868 29.3986,21.66868 C27.297,23.86788 25.5978,26.46948 24.6994,29.36788 C23.6994,29.46944 22.6994,29.46944 21.6994,29.46944 C16.0002,29.46944 11.0004,28.36784 7.3014,26.66864 C3.6998,24.96944 1.6998,22.66864 1.6998,20.36784 L1.6998,20.26628 L1.699,15.6687 Z M43.801,17.1687 C54.102,17.1687 62.301,25.4695 62.301,35.7707 C62.301,46.0719 54.0002,54.3727 43.801,54.3727 C33.6018,54.3727 25.301,46.0719 25.301,35.7707 C25.301,25.5677 33.5002,17.1687 43.801,17.1687 Z M1.699,24.4695 C2.8006,25.8679 4.5974,27.1687 6.5974,28.1687 C10.4958,30.0671 15.7966,31.1687 21.6994,31.1687 C22.59784,31.1687 23.3986,31.1687 24.1994,31.06714 C23.80096,32.56714 23.59784,34.26634 23.59784,35.86794 C23.59784,36.86794 23.6994,37.86794 23.79706,38.86794 C23.09784,38.9695 22.39866,38.9695 21.59786,38.9695 C15.89866,38.9695 10.89886,37.8679 7.19986,36.1687 C3.59826,34.4695 1.59826,32.1687 1.59826,29.7703 L1.59826,29.66874 L1.602166,24.46954 L1.699,24.4695 Z M1.699,33.7703 C2.8006,35.1687 4.5974,36.4695 6.5974,37.4695 C10.4958,39.3679 15.7966,40.4695 21.6994,40.4695 C22.50018,40.4695 23.301,40.4695 24.1994,40.36794 C24.80096,42.76634 25.6994,44.96954 27.0978,46.96954 C25.3986,47.16876 23.6994,47.36798 21.797,47.36798 C16.0978,47.36798 10.996,46.26638 7.399,44.56718 C3.7974,42.86798 1.7974,40.56718 1.7974,38.26638 L1.699,33.7703 Z" id="Shape"></path>
            <path d="M50.5,35.066 L37.004,35.066 C36.60556,35.066 36.30478,35.36678 36.30478,35.76522 C36.30478,36.16366 36.60556,36.46444 37.004,36.46444 L50.504,36.46444 C50.90244,36.46444 51.20322,36.16366 51.20322,35.76522 C51.199314,35.36678 50.89853,35.066 50.5001,35.066 L50.5,35.066 Z" id="Shape"></path>
        </g>
    </g>
</svg>