<?xml version="1.0" encoding="UTF-8"?>
<svg width="65px" height="51px" viewBox="0 0 65 51" version="1.1" xmlns="http://www.w3.org/2000/svg" xmlns:xlink="http://www.w3.org/1999/xlink">
    <!-- Generator: Sketch 47.1 (45422) - http://www.bohemiancoding.com/sketch -->
    <title>Shape</title>
    <desc>Created with Sketch.</desc>
    <defs>
        <linearGradient x1="50%" y1="100%" x2="50%" y2="-2.22044605e-14%" id="linearGradient-1">
            <stop stop-color="#F2994A" offset="0%"></stop>
            <stop stop-color="#F2C94C" offset="100%"></stop>
        </linearGradient>
    </defs>
    <g id="Page-1" stroke="none" stroke-width="1" fill="none" fill-rule="evenodd">
        <g id="noun_1509433" fill-rule="nonzero" fill="url(#linearGradient-1)">
            <path d="M64.7764935,28.1631509 C64.7782436,28.1355171 64.7763553,28.1089427 64.7750197,28.0810326 C64.7717037,28.0127772 64.7590382,27.9469628 64.7375299,27.8820235 C64.7322335,27.8660419 64.7349047,27.8495078 64.7284569,27.8336644 L60.1003551,16.4264492 L60.2628416,1.46479579 C60.2665261,1.1132944 60.0270335,0.805638518 59.6851118,0.723105695 C59.3428216,0.640572872 58.9898465,0.805270054 58.8328867,1.12029492 L52.0762487,14.6866277 L42.3215322,7.51179885 C42.0934615,7.34378564 41.7891218,7.31799412 41.5371019,7.44474092 C41.2836082,7.57185618 41.1225955,7.82977127 41.1200163,8.11310942 L40.9867296,23.2638237 L25.9947712,20.1573749 C25.6244788,20.0818426 25.257134,20.2878063 25.1307557,20.6429921 L24.7143611,21.8115317 L17.4467288,16.2193802 C17.3431944,16.1397949 17.2208689,16.088212 17.0915429,16.0701579 L1.07685903,13.8204016 C0.75630743,13.7747137 0.444230206,13.9386741 0.29869241,14.226802 C0.15278615,14.51493 0.206211429,14.8638523 0.431702874,15.0948704 L14.324851,29.3284664 C14.4375967,29.4434229 14.5838714,29.5196921 14.7426734,29.545852 L21.5586779,30.6670456 L17.5837921,41.8215041 C17.4931534,42.0749978 17.5451049,42.3579675 17.7193817,42.5631942 C17.8641826,42.7337866 18.0753045,42.8292152 18.2945323,42.8292152 C18.3394832,42.8292152 18.3844341,42.8251622 18.4297535,42.8170563 L36.3271253,39.558806 L45.1854949,50.2564323 C45.3118733,50.4089706 45.4931507,50.505873 45.6902715,50.5257693 L49.8640743,50.9502239 C49.8894973,50.9531714 49.9149204,50.9542768 49.9403434,50.9542768 C50.1706248,50.9542768 50.390221,50.8489001 50.5339166,50.6654119 C50.6938239,50.4620275 50.7380379,50.1904798 50.6514521,49.9469343 L46.9803534,39.6248506 L49.7557499,41.663439 C49.8854444,41.7584991 50.0420356,41.8097137 50.2023115,41.8097137 C50.213365,41.8097137 50.224787,41.8093452 50.2358405,41.8089768 L55.3082931,41.5823799 C55.581683,41.5702211 55.8267023,41.4110506 55.9493963,41.1667683 C56.0717217,40.9221174 56.0525623,40.6306734 55.8989186,40.404445 L52.1620977,34.9070312 C52.3277621,34.7754485 52.4416132,34.5888285 52.4557525,34.3754959 L52.8575473,28.3400069 L63.9930306,28.8712198 C64.0006299,28.8714501 64.008091,28.8715422 64.0155981,28.8716804 C64.0173022,28.8717264 64.0189142,28.8717726 64.0206182,28.8717726 C64.0234276,28.8718186 64.0263753,28.8719567 64.0291387,28.8719567 C64.1183957,28.8719567 64.2032313,28.8515538 64.2844746,28.8220318 C64.293824,28.8186696 64.3035419,28.8204658 64.3128453,28.8166892 C64.3272148,28.8108862 64.3361958,28.7986813 64.3500127,28.7920952 C64.4138467,28.761698 64.4718315,28.7232871 64.5248883,28.6763558 C64.5415607,28.6615717 64.5596147,28.649505 64.5747673,28.6334313 C64.6307717,28.5742951 64.680098,28.5083425 64.7151928,28.4316589 C64.7169891,28.427698 64.7169429,28.4233227 64.7186931,28.4193618 C64.7256937,28.4034263 64.7270754,28.3862013 64.7329245,28.3698053 C64.7571499,28.3019184 64.7722563,28.2332946 64.7764935,28.1631509 Z M61.8317942,24.7086548 L54.3121421,16.7934715 L58.8149708,17.2725027 L61.8317942,24.7086548 Z M58.5986906,15.7317825 L53.5111776,15.1905293 L58.7179303,4.73589571 L58.5986906,15.7317825 Z M51.2161019,15.9271992 L42.4794591,25.1422745 L42.6162922,9.60201627 L51.2161019,15.9271992 Z M15.2319752,28.0967378 L3.05580455,15.622491 L16.6844055,17.5369578 L24.1818124,23.3059192 L22.0735409,29.2222147 L15.2319752,28.0967378 Z M19.4433599,41.098605 L24.9068301,25.767258 L35.2232488,38.2256614 L19.4433599,41.098605 Z M46.1504657,49.0556535 L25.5518941,24.1804816 C25.5343007,24.1592036 25.5094303,24.1493015 25.4900866,24.1304645 L26.331903,21.7682387 L40.9732351,24.8020109 L40.9534769,27.045918 C40.9533848,27.0570636 40.9585431,27.0675184 40.9589576,27.078618 C40.960938,27.1369252 40.9721297,27.194035 40.987927,27.2514211 C40.9927629,27.2690607 40.9908285,27.2880358 40.996954,27.3053069 L48.8294663,49.3283065 L46.1504657,49.0556535 Z M50.4344351,40.2894886 L47.3442441,38.0195136 L50.9012154,35.7367349 L53.8908656,40.135108 L50.4344351,40.2894886 Z M50.9753198,33.8957739 L46.0638338,37.0478185 L42.796142,27.8600086 L51.3501256,28.2681131 L50.9753198,33.8957739 Z M43.3881952,26.3771811 L52.3525862,16.9220146 L62.1872564,27.2739887 L43.3881952,26.3771811 Z" id="Shape"></path>
        </g>
    </g>
</svg>