<?xml version="1.0" encoding="UTF-8"?>
<svg width="60px" height="38px" viewBox="0 0 60 38" version="1.1" xmlns="http://www.w3.org/2000/svg" xmlns:xlink="http://www.w3.org/1999/xlink">
    <!-- Generator: Sketch 47.1 (45422) - http://www.bohemiancoding.com/sketch -->
    <title>Shape</title>
    <desc>Created with Sketch.</desc>
    <defs></defs>
    <g id="Page-1" stroke="none" stroke-width="1" fill="none" fill-rule="evenodd">
        <g id="noun_99409_cc" fill-rule="nonzero" fill="#000000">
            <path d="M5,2.5 C2.243,2.5 0,4.743 0,7.5 C0,10.257 2.243,12.5 5,12.5 C7.757,12.5 10,10.257 10,7.5 C10,4.743 7.757,2.5 5,2.5 Z M5,10.5 C3.346,10.5 2,9.154 2,7.5 C2,5.846 3.346,4.5 5,4.5 C6.654,4.5 8,5.846 8,7.5 C8,9.154 6.654,10.5 5,10.5 Z M20,17.5 C19.447,17.5 19,17.948 19,18.5 L19,36.5 C19,37.052 19.447,37.5 20,37.5 C20.553,37.5 21,37.052 21,36.5 L21,18.5 C21,17.948 20.553,17.5 20,17.5 Z M59,0.5 C47.324,0.5 39.953,14.511 37.211,26.674 C34.826,13.277 27.048,6.5 14,6.5 C13.447,6.5 13,6.948 13,7.5 C13,8.052 13.447,8.5 14,8.5 C28.804,8.5 36,17.659 36,36.5 C36,37.052 36.447,37.5 37,37.5 C37.553,37.5 38,37.052 38,36.5 C38,22.964 46.376,2.5 59,2.5 C59.553,2.5 60,2.052 60,1.5 C60,0.948 59.553,0.5 59,0.5 Z" id="Shape"></path>
        </g>
    </g>
</svg>