<?xml version="1.0" encoding="UTF-8"?>
<svg width="64px" height="52px" viewBox="0 0 64 52" version="1.1" xmlns="http://www.w3.org/2000/svg" xmlns:xlink="http://www.w3.org/1999/xlink">
    <!-- Generator: Sketch 47.1 (45422) - http://www.bohemiancoding.com/sketch -->
    <title>np_charging-battery_691488_000000</title>
    <desc>Created with Sketch.</desc>
    <defs></defs>
    <g id="Page-4" stroke="none" stroke-width="1" fill="none" fill-rule="evenodd">
        <g id="np_charging-battery_691488_000000" transform="translate(0.000000, -1.000000)" fill-rule="nonzero" fill="#000000">
            <path d="M30.5263158,2.57178947 L17.0526316,26.1507368 C16.4605305,27.1704758 17.3486821,28.6901895 18.5263158,28.6770526 L35.8416842,28.6770526 L23.7891368,49.7296842 C23.3549305,50.4994189 23.6707166,51.5981474 24.4404547,52.0257684 C25.2167747,52.4534063 26.3089179,52.1376101 26.7365389,51.3612968 L40.2102232,27.7823495 C40.7496926,26.7626105 39.8878484,25.3153179 38.7365389,25.3085811 L21.4211705,25.3085811 L33.4737179,4.20373895 C34.0987116,3.13795368 33.0724042,1.54588632 31.8421389,1.67742316 C31.21056,1.78268632 30.7039832,2.26295579 30.5263495,2.57216 L30.5263158,2.57178947 Z M1.68421053,11.8349474 C0.585532632,11.8349474 0,12.7560084 0,13.5191579 L0,40.4665263 C0,41.3481095 0.802627368,42.1507368 1.68421053,42.1507368 L20.2105263,42.1507368 C21.0986779,42.1704724 21.8947368,41.3546779 21.8947368,40.4665263 C21.8947368,39.5783747 21.0986779,38.7691789 20.2105263,38.7823158 L3.36842105,38.7823158 L3.36842105,15.2033684 L11.7894737,15.2033684 C12.6776253,15.223104 13.4736842,14.4073095 13.4736842,13.5191579 C13.4736842,12.6310063 12.6776253,11.8218105 11.7894737,11.8349474 L1.68421053,11.8349474 Z M38.7368421,11.8349474 C37.5263158,11.8349474 36.8618105,12.6507453 36.8946526,13.6771368 C36.9801785,14.55872 37.8551747,15.2889768 38.7368421,15.2034526 L53.8947368,15.2034526 L53.8947368,38.7824 L45.4736842,38.7824 C44.5855326,38.7626627 43.7894737,39.5784589 43.7894737,40.4666105 C43.7894737,41.3547621 44.5855326,42.1639579 45.4736842,42.1508211 L55.5789474,42.1508211 C56.4605305,42.1508211 57.2631579,41.3481937 57.2631579,40.4666105 L57.2631579,32.0455579 L62.3157895,32.0455579 C63.1973726,32.0455579 64,31.2429305 64,30.3613474 L64,23.6245053 C64,22.7429221 63.1973726,21.9402947 62.3157895,21.9402947 L57.2631579,21.9402947 L57.2631579,13.5192421 C57.2631579,12.6376589 56.4605305,11.8350316 55.5789474,11.8350316 L38.7368421,11.8349474 Z M57.2631579,25.3086316 L60.6315789,25.3086316 L60.6315789,28.6770526 L57.2631579,28.6770526 L57.2631579,25.3086316 Z" id="Shape"></path>
        </g>
    </g>
</svg>