<?xml version="1.0" encoding="UTF-8"?>
<svg width="24px" height="24px" viewBox="0 0 24 24" version="1.1" xmlns="http://www.w3.org/2000/svg" xmlns:xlink="http://www.w3.org/1999/xlink">
    <!-- Generator: Sketch 47.1 (45422) - http://www.bohemiancoding.com/sketch -->
    <title>Group</title>
    <desc>Created with Sketch.</desc>
    <defs></defs>
    <g id="Page-1" stroke="none" stroke-width="1" fill="none" fill-rule="evenodd">
        <g id="noun_1461125_cc" fill-rule="nonzero" fill="#000000">
            <g id="Group">
                <path d="M12,0.4438477 C6.9921875,0.4438477 3.6591797,2.6386719 3.5200195,2.7319336 C3.1757813,2.9624023 3.0839844,3.4282227 3.3144531,3.7724609 C3.4589844,3.9882812 3.696289,4.1049804 3.9379883,4.1049804 C4.081543,4.1049804 4.2270508,4.0639648 4.3549805,3.9780273 C4.3852539,3.9575195 7.4433594,1.9438477 12,1.9438477 C16.0380859,1.9438477 19.6533203,3.9848633 19.6894531,4.0058594 C20.0493164,4.2104492 20.5068359,4.0869141 20.7128906,3.7275391 C20.9189453,3.3686524 20.7949219,2.9106446 20.4360351,2.7045899 C20.2753906,2.6123047 16.4487305,0.4438477 12,0.4438477 Z" id="Shape"></path>
                <path d="M12,3.6855469 C4.7050781,3.6855469 0.7973633,9.1767578 0.6347656,9.4101563 C0.3979492,9.75 0.4814453,10.2177734 0.8212891,10.4541016 C0.9521485,10.5454102 1.1015625,10.5888672 1.2495118,10.5888672 C1.4863282,10.5888672 1.7197266,10.4765625 1.8652345,10.2675781 C1.9008789,10.2167969 5.4799805,5.1855469 12,5.1855469 C17.9985352,5.1855469 22.1225586,10.2553711 22.1635742,10.3066407 C22.4233398,10.6303712 22.8955078,10.6835938 23.2172851,10.4248048 C23.5410156,10.166504 23.5947265,9.6958009 23.336914,9.3720704 C23.1523438,9.1396484 18.734375,3.6855469 12,3.6855469 Z" id="Shape"></path>
                <path d="M14.5283203,17.140625 C15.1572266,18.7216797 15.980957,19.6865234 17.0463867,20.0917969 C18.0131836,20.4580078 19.1416015,20.3261719 20.399414,19.694336 C23.0126953,18.3808594 22.4404296,14.7333985 22.3920898,14.4814454 C20.105957,7.0141602 12.0805664,6.9277344 12,6.9277344 C6.0458984,6.9277344 2.6835937,10.6972657 1.6132812,13.9248047 C0.4970703,17.2900391 2.6308593,21.8544922 2.7221679,22.046875 C2.8999023,22.421875 3.3466796,22.5800781 3.7207031,22.4033203 C4.0947265,22.2255859 4.2548828,21.7792969 4.0776367,21.4042969 C4.0581054,21.3632813 2.1113281,17.1884766 3.0371094,14.397461 C3.9936524,11.5112305 6.850586,8.4277344 11.9985352,8.4277344 C12.2836915,8.428711 19.0004883,8.5273438 20.9350586,14.8242188 C20.9394531,14.850586 21.3369141,17.5439454 19.7255859,18.3544922 C18.8471679,18.7958985 18.1459961,18.9042969 17.5795898,18.6894531 C16.9379882,18.4453125 16.380371,17.7382812 15.921875,16.5859375 C14.8793945,13.9658203 14.1040039,12.8710938 12,12.8710938 C10.6557617,12.8710938 9.0395508,13.6894532 8.1577148,14.8183594 C7.4946289,15.6660157 7.2705078,16.6220703 7.5092773,17.5839844 C8.3920898,21.1337891 12.6567382,22.9160157 14.4487304,23.5175782 C14.527832,23.5439454 14.6083984,23.5566407 14.6874999,23.5566407 C15.0009765,23.5566407 15.2934569,23.3583985 15.3984374,23.0449219 C15.5302733,22.6523438 15.3188476,22.2275391 14.9262694,22.0957031 C13.7104491,21.6875 9.6884764,20.1308593 8.9653319,17.2226562 C8.8398436,16.7177734 8.9658202,16.2197265 9.3393553,15.7421874 C10.0014648,14.8955078 11.2358398,14.3710938 12,14.3710938 C13.0776367,14.3710938 13.5117188,14.5859375 14.5283203,17.140625 Z" id="Shape"></path>
                <path d="M12,11.4174805 C16.6748047,11.4174805 17.6733398,15.7402344 17.7163086,15.9375 C17.8027344,16.3417969 18.2006836,16.6015625 18.6044922,16.5166016 C19.0097656,16.4306641 19.2695313,16.0332032 19.184082,15.6279297 C19.1723633,15.5712891 17.9155273,9.9174805 12,9.9174805 C6.9199219,9.9174805 4.2626953,14.0869141 4.2626953,16.3222657 C4.2626953,16.4423829 4.2827148,19.2998048 6.0239258,21.6337891 C6.1708985,21.8310547 6.3969727,21.9355469 6.6254883,21.9355469 C6.7817383,21.9355469 6.9389649,21.8867188 7.0732422,21.7871094 C7.4052735,21.5390625 7.4736328,21.069336 7.2260742,20.7373047 C5.790039,18.8115234 5.7626953,16.3457031 5.7626953,16.3222656 C5.7626953,14.9716797 7.6806641,11.4174805 12,11.4174805 Z" id="Shape"></path>
                <ellipse id="Oval" cx="11.7438354" cy="17.25" rx="1" ry="1"></ellipse>
            </g>
        </g>
    </g>
</svg>